# xmcd
#
# Track frame offsets:
#	150
#	19677
#	35747
#	52952
#	70877
#	89242
#	103070
#	120427
#	138892
#	156105
#	169252
#
# Disc length: 2439 seconds
#
# Revision: 0
# Processed by: cddbd v1.4PL0 Copyright (c) Steve Scherf et al.
# Submitted via: dBpowerAMP V4.0
#
DISCID=9309850b
DTITLE=Bart Herman  - Hacienda
DYEAR=2001
DGENRE=Ned Tex-Mex
TTITLE0=Een dag als deze
TTITLE1=Ik kom wel terecht
TTITLE2=Hacienda
TTITLE3=Ik maak mij geen zorgen
TTITLE4=Ma
TTITLE5=Blijf hier vannacht
TTITLE6=Alleen Vooruit
TTITLE7=Zolang ik leef
TTITLE8=Waarom zo vlug
TTITLE9=Het is beter dat ze gaat
TTITLE10=In het midden van de woestijn
EXTD=
EXTT0=
EXTT1=
EXTT2=
EXTT3=
EXTT4=
EXTT5=
EXTT6=
EXTT7=
EXTT8=
EXTT9=
EXTT10=
PLAYORDER=
